<?xml version="1.0" encoding="UTF-8" standalone="no"?>
<!-- Created with Inkscape (http://www.inkscape.org/) -->

<svg
   version="1.1"
   id="svg1"
   width="453"
   height="417"
   viewBox="0 0 453 417"
   xmlns="http://www.w3.org/2000/svg"
   xmlns:svg="http://www.w3.org/2000/svg">
  <defs
     id="defs1" />
  <g
     id="g1">
    <g
       id="g2"
       style="fill:#000000"
       transform="translate(2.5396337,7.5050636)">
      <path
         id="path2"
         style="fill:#000000;fill-opacity:1"
         d="m 224.11372,22.788788 c -0.65342,-0.01301 -1.28929,0.08013 -1.86328,0.296875 -1.2375,0.467285 -2.34569,0.977588 -2.46094,1.132812 -0.11525,0.155223 -0.45275,12.652076 -0.75,27.771485 l -0.53906,27.490234 -15,10.748047 c -8.25,5.912006 -15.5625,11.514959 -16.25,12.451169 -0.88949,1.21126 -1.25,6.83913 -1.25,19.51172 v 17.8086 h -2.27734 c -5.56915,0 -8.52627,5.35092 -5.06836,9.17187 l 1.65429,1.82813 h 44.32227 44.32227 l 1.55078,-2.36524 1.54883,-2.36523 -0.94922,-2.49805 c -0.9858,-2.59286 -2.91281,-3.77148 -6.16407,-3.77148 h -1.89648 l -0.27148,-18.75 -0.27149,-18.75 -16.19726,-11.500005 -16.19727,-11.5 -0.0684,-26.5 c -0.0375,-14.575 -0.39865,-26.994446 -0.80273,-27.599609 -1.04653,-1.567312 -3.16083,-2.572284 -5.1211,-2.611328 z m 48.46094,22.289062 c -1.39579,-0.05058 -2.75929,0.502378 -3.75586,1.671875 -1.38596,1.626456 -9.86828,28.305173 -9.83398,30.929688 0.008,0.648215 0.72164,1.885715 1.58593,2.75 1.6878,1.687807 5.14093,2.040378 7.19532,0.736328 1.19572,-0.758993 6.58551,-16.455924 9.33593,-27.1875 l 1.26172,-4.919922 -1.83789,-2.029297 c -1.12806,-1.246494 -2.55538,-1.900588 -3.95117,-1.951172 z m -95.62305,0.111328 c -0.77309,0.01523 -1.56423,0.22479 -2.45117,0.628907 l -2.5,1.138672 v 2.947265 c 0,3.359061 7.64089,28.947086 9.21094,30.845703 1.74509,2.110308 6.57829,1.502317 8.24219,-1.037109 l 1.49804,-2.287109 -4.68359,-15.328125 -4.68164,-15.330079 -2.29297,-1.042968 c -0.81341,-0.370613 -1.5687,-0.55039 -2.3418,-0.535157 z m 145.95703,7.521485 -2.20312,1.18164 c -3.04167,1.63155 -33.70508,48.572787 -33.70508,51.597657 0,1.34216 0.97759,3.08104 2.22266,3.95312 2.64047,1.84946 2.40581,1.82657 4.88086,0.50196 2.96092,-1.58463 33.89648,-48.544998 33.89648,-51.45508 0,-1.514992 -0.96707,-3.077482 -2.54492,-4.111328 z M 127.0063,53.468475 c -3.48891,-0.03177 -6.73621,4.297174 -4.875,7.78125 3.94388,7.382702 32.40181,48.714165 33.74609,49.011715 4.21857,0.93374 8.57852,-4.05012 6.52149,-7.45507 -6.80223,-11.259611 -32.01952,-48.069471 -33.45899,-48.839848 -0.63173,-0.338095 -1.28749,-0.492163 -1.93359,-0.498047 z m 97.44141,35.53125 c 0.85978,0 11.72786,7.20511 14.05273,9.316407 1.1,0.998947 3.4625,2.723618 5.25,3.832028 1.7875,1.10841 3.25,2.42846 3.25,2.9336 0,0.53071 -9.4987,0.91797 -22.5,0.91797 -12.375,0 -22.49006,-0.3375 -22.47656,-0.75 0.0253,-0.77322 21.38218,-16.250005 22.42383,-16.250005 z M 96.945754,97.925507 c -1.080506,0.01365 -1.937598,0.466894 -2.746094,1.27539 -0.66,0.66 -1.199219,2.432673 -1.199219,3.941403 v 2.74414 l 12.249999,10.03321 c 7.06455,5.78635 13.17136,10.04324 14.42774,10.05664 3.04076,0.0325 5.48843,-2.7412 5.12695,-5.8125 l -0.30469,-2.58594 -11.94531,-9.78906 C 103.93028,100.72023 99.707046,97.890631 96.945754,97.925507 Z M 351.7856,98.056366 c -2.76597,0.08756 -6.75704,2.945674 -14.78516,9.755864 l -11.5,9.75585 -0.32226,2.77735 c -0.17724,1.52696 0.214,3.4231 0.87109,4.21484 2.57965,3.1083 5.96996,1.55113 17.77734,-8.16992 6.42011,-5.2857 12.09266,-10.67306 12.60547,-11.9707 l 0.9336,-2.35938 -1.8379,-2.02929 c -1.18079,-1.304772 -2.29334,-2.020477 -3.74218,-1.974614 z M 196.00044,114.99973 h 12 12 v 13 13 h -12 -12 v -13 z m 33,0 h 12 12 v 13 13 h -12 -12 v -13 z m -168.066405,17 c -3.52718,0 -6.148759,5.54044 -4.126953,8.72265 0.42717,0.67235 12.907468,6.39358 27.734375,12.71485 14.826908,6.32127 27.040883,11.51039 27.142573,11.52929 0.1017,0.0189 1.36649,-0.41581 2.81055,-0.96484 l 2.62695,-0.99805 -0.31054,-3.75195 -0.31055,-3.75195 -3.5,-1.75196 c -6.48743,-3.24775 -50.778379,-21.74804 -52.066405,-21.74804 z m 328.070315,0.4746 c -2.78696,0.0147 -7.33652,1.77247 -15.50391,5.50782 -1.1,0.50308 -10.52384,4.53843 -20.94141,8.96679 -10.41757,4.42836 -19.29786,8.61333 -19.73437,9.30079 -1.47715,2.32635 -0.835,5.62899 1.39844,7.19335 1.22237,0.85618 2.53799,1.55665 2.92383,1.55665 0.38585,0 12.77306,-5.15059 27.52734,-11.44727 17.09372,-7.29508 27.3319,-12.20599 28.2207,-13.53516 l 1.39453,-2.08593 -1.11132,-2.4375 c -0.90545,-1.98723 -2.0062,-3.031 -4.17383,-3.01954 z m -208.34766,24.5254 -1.82812,1.65625 c -4.1059,3.71579 -0.48168,8.34375 6.5332,8.34375 h 3.91601 l -0.60351,4.75 c -0.33246,2.6125 -1.96875,15.1 -3.63672,27.75 -0.7034,5.33466 -1.43817,10.94 -2.0957,15.99023 -10e-6,0.0256 0,0.0522 0,0.0781 -0.004,0.14343 -0.0234,0.28583 -0.043,0.42774 -0.0162,0.11 -0.0252,0.2211 -0.0312,0.33203 -0.001,0.10091 -0.0151,0.20078 -0.0273,0.30078 -0.004,0.0438 -0.0115,0.0857 -0.0195,0.12891 -0.0127,0.0684 -0.0353,0.12308 -0.0644,0.16406 -0.81898,6.29827 -1.4974,11.56282 -1.81055,14.07813 -0.58203,4.675 -1.3703,8.79866 -1.75195,9.16406 -0.38164,0.36539 -4.29336,0.0439 -8.69336,-0.71485 -51.37374,-8.85926 -85.264892,-6.80076 -110.499999,6.71289 -4.125,2.20898 -7.632657,4.14776 -7.794922,4.30665 -0.520765,0.50993 2.011741,9.54686 2.814453,10.04296 0.425717,0.26311 3.842423,-1.31371 7.59375,-3.50586 6.674983,-3.90063 16.388378,-7.50947 27.386719,-10.17382 7.223407,-1.74993 47.550779,-1.73994 57.999999,0.0137 4.125,0.69226 11.775,1.93274 17,2.75781 5.225,0.82508 10.33085,1.74606 11.34766,2.04688 l 1.84961,0.54687 -0.56446,4.15234 c -0.31073,2.2832 -1.08981,7.91201 -1.73047,12.50977 l -1.16406,8.35938 -3.61914,-0.63868 c -35.08742,-6.19813 -65.82897,-6.70859 -87.066404,-1.44531 -9.301448,2.30518 -20.052735,6.61296 -20.052735,8.03516 0,1.00028 3.855085,8.83008 4.347656,8.83008 0.168997,0 3.086516,-1.12912 6.484375,-2.50977 3.397859,-1.38067 10.114363,-3.48231 14.923829,-4.66992 l 9.330473,-1.33929 19.796396,-1.3992 c 19.32353,0.007 25.8592,1.15346 47.8868,4.76212 2.89882,0.4749 5.54856,1.14035 5.88672,1.47851 0.78268,0.78267 -1.71164,22.89133 -2.71094,24.0293 -0.41074,0.46774 -5.40344,0.12938 -11.0957,-0.75196 -15.20195,-2.35372 -37.92947,-3.76592 -49.34961,-3.0664 -11.097888,0.67977 -27.499999,3.2873 -27.499999,4.37305 0,0.38451 1.417334,2.62778 3.150391,4.98437 l 3.15039,4.28516 2.59961,-0.58789 c 8.029804,-1.81755 23.129028,-2.72737 36.099608,-2.17383 14.37936,0.61366 39.82657,3.92759 41.06836,5.34765 0.35541,0.40643 -0.0513,6.08072 -0.90234,12.60938 l -1.54688,11.86914 -5.06055,-0.57813 c -2.78298,-0.3187 -8.88359,-1.01451 -13.55859,-1.54492 -14.80583,-1.67982 -34.31644,-2.43804 -33.61719,-1.30664 0.34884,0.56444 3.61811,3.15499 7.26563,5.75781 l 6.63281,4.73243 9.60938,0.83398 c 13.36046,1.15775 26.03952,2.94654 26.53125,3.74219 0.22695,0.3672 0.0842,3.4592 -0.31836,6.87305 l -0.73243,6.20703 4.06446,1.44336 c 2.23517,0.7933 4.57499,1.47808 5.19922,1.52148 1.3279,0.0924 1.65073,-2.00309 8.375,-54.42187 1.05831,-8.25 2.40374,-18.6 2.99023,-23 0.58649,-4.4 1.93649,-14.75 3,-23 1.06351,-8.25 2.41351,-18.6 3,-23 0.58649,-4.4 1.93649,-14.75 3,-23 1.06351,-8.25 2.41345,-18.6 3,-23 0.58655,-4.4 1.50093,-11.6 2.03125,-16 0.53032,-4.4 1.46018,-11.7125 2.06836,-16.25 l 1.10742,-8.25 h 24.26563 24.26758 l 0.52343,4.25 c 0.28838,2.3375 1.4421,10.775 2.5625,18.75 1.12041,7.975 2.76569,20.125 3.65821,27 0.89252,6.875 2.49961,18.8 3.57031,26.5 1.0707,7.7 2.42125,17.6 3.00195,22 0.58069,4.4 1.47088,10.925 1.97852,14.5 0.50764,3.575 1.8491,13.475 2.98047,22 1.13136,8.525 2.48394,18.425 3.00586,22 0.52192,3.575 2.33985,16.62165 4.03906,28.99218 1.69925,12.37053 3.26097,22.66332 3.4707,22.87305 0.20973,0.20974 2.42493,-0.2231 4.92383,-0.96094 l 4.54492,-1.33984 -0.0352,-2.0332 c -0.0187,-1.11742 -0.64625,-7.20625 -1.39648,-13.53125 -0.75024,-6.325 -1.21153,-11.66105 -1.02344,-11.85938 0.1881,-0.19832 7.17576,0.16196 15.52735,0.80078 8.35159,0.63881 19.51488,0.85425 24.80664,0.48047 l 9.62109,-0.67969 4,-3.29492 c 2.2,-1.81292 5.76799,-4.85554 7.92969,-6.75976 l 3.92969,-3.46094 -7.92969,1.43945 c -12.5414,2.27628 -55.26414,1.91069 -59.16992,-0.50586 -0.93866,-0.58076 -3.43865,-16.34224 -3.67383,-23.16015 l -0.0859,-2.5 7.5,0.5 c 4.125,0.275 17.4,0.48914 29.5,0.47656 l 22,-0.0215 9.42774,-1.75781 c 5.18559,-0.9668 13.68343,-3.19817 18.88281,-4.95703 l 9.45312,-3.19727 2.23047,-3.53515 c 1.22747,-1.94445 3.4045,-5.84909 4.83789,-8.67774 l 2.60742,-5.14453 -8.7207,4.40039 c -9.86168,4.9765 -21.49912,8.69634 -34.12109,10.9043 -10.48753,1.83458 -45.73633,1.95413 -57.57227,0.19531 l -7.97461,-1.18554 -1.14258,-7 c -0.62849,-3.85 -1.45054,-9.82591 -1.82812,-13.28125 l -0.6875,-6.28321 2.30273,0.50196 c 7.44509,1.6207 23.771,2.69429 40.80469,2.68359 l 19.5,-0.0137 11.81445,-2.04688 c 17.00807,-2.9483 33.73331,-9.06396 44.32032,-16.20703 l 4.13281,-2.79101 1.625,-7.18946 c 0.89305,-3.95454 1.44123,-7.37128 1.21875,-7.59375 -0.22247,-0.22248 -2.81333,1.42643 -5.75781,3.66406 -11.96391,9.09185 -27.40039,15.51444 -46.30078,19.26563 l -11.05274,2.19336 -21.5,-0.0996 c -13.74151,-0.0638 -25.23983,-0.65726 -31.86133,-1.64453 -5.69801,-0.84957 -10.49048,-1.6829 -10.65039,-1.85156 -0.29121,-0.30715 -0.80755,-3.93958 -6.52539,-45.80664 -1.69007,-12.375 -3.7229,-27.05832 -4.51758,-32.62891 -0.79469,-5.57058 -1.44531,-10.85808 -1.44531,-11.75 v -1.62109 h 4.47656 4.47657 l 1.55078,-2.36524 1.54883,-2.36523 -1.00196,-2.63477 -1.00195,-2.63476 h -44.69531 z" />
    </g>
  </g>
</svg>
